<mxfile host="app.diagrams.net" agent="Mozilla/5.0 (X11; Linux x86_64) AppleWebKit/537.36 (KHTML, like Gecko) Chrome/129.0.0.0 Safari/537.36" version="24.7.17">
  <diagram name="Page-1" id="0hU12V8MDEhU50m7K7h4">
    <mxGraphModel dx="1434" dy="688" grid="1" gridSize="10" guides="1" tooltips="1" connect="1" arrows="1" fold="1" page="1" pageScale="1" pageWidth="827" pageHeight="1169" math="0" shadow="0">
      <root>
        <mxCell id="0" />
        <mxCell id="1" parent="0" />
        <mxCell id="OkBjMl4km642uhRiBThM-1" value="&lt;font style=&quot;font-size: 31px;&quot;&gt;&lt;b&gt;Audit Table Architecture&lt;/b&gt;&lt;/font&gt;" style="text;html=1;align=center;verticalAlign=middle;resizable=0;points=[];autosize=1;strokeColor=none;fillColor=none;" vertex="1" parent="1">
          <mxGeometry x="230" y="80" width="380" height="50" as="geometry" />
        </mxCell>
        <mxCell id="OkBjMl4km642uhRiBThM-2" value="" style="sketch=0;html=1;aspect=fixed;strokeColor=none;shadow=0;fillColor=#3B8DF1;verticalAlign=top;labelPosition=center;verticalLabelPosition=bottom;shape=mxgraph.gcp2.database_2" vertex="1" parent="1">
          <mxGeometry x="52.7" y="280" width="62.4" height="80" as="geometry" />
        </mxCell>
        <mxCell id="OkBjMl4km642uhRiBThM-3" value="&lt;b&gt;&lt;font style=&quot;font-size: 14px;&quot;&gt;Orders&lt;/font&gt;&lt;/b&gt;" style="text;html=1;align=center;verticalAlign=middle;resizable=0;points=[];autosize=1;strokeColor=none;fillColor=none;" vertex="1" parent="1">
          <mxGeometry x="50.099999999999994" y="360" width="70" height="30" as="geometry" />
        </mxCell>
        <mxCell id="OkBjMl4km642uhRiBThM-8" value="&lt;font style=&quot;font-size: 15px;&quot;&gt;&lt;b&gt;Trigger&lt;/b&gt;&lt;/font&gt;" style="text;html=1;align=center;verticalAlign=middle;resizable=0;points=[];autosize=1;strokeColor=none;fillColor=none;strokeWidth=3;" vertex="1" parent="1">
          <mxGeometry x="150" y="290" width="70" height="30" as="geometry" />
        </mxCell>
        <mxCell id="OkBjMl4km642uhRiBThM-9" value="" style="endArrow=classic;html=1;rounded=0;" edge="1" parent="1">
          <mxGeometry width="50" height="50" relative="1" as="geometry">
            <mxPoint x="130" y="320" as="sourcePoint" />
            <mxPoint x="240" y="320" as="targetPoint" />
            <Array as="points" />
          </mxGeometry>
        </mxCell>
        <mxCell id="OkBjMl4km642uhRiBThM-10" value="" style="sketch=0;points=[[0,0,0],[0.25,0,0],[0.5,0,0],[0.75,0,0],[1,0,0],[0,1,0],[0.25,1,0],[0.5,1,0],[0.75,1,0],[1,1,0],[0,0.25,0],[0,0.5,0],[0,0.75,0],[1,0.25,0],[1,0.5,0],[1,0.75,0]];outlineConnect=0;fontColor=#232F3E;fillColor=#ED7100;strokeColor=#ffffff;dashed=0;verticalLabelPosition=bottom;verticalAlign=top;align=center;html=1;fontSize=12;fontStyle=0;aspect=fixed;shape=mxgraph.aws4.resourceIcon;resIcon=mxgraph.aws4.lambda;" vertex="1" parent="1">
          <mxGeometry x="250" y="280" width="78" height="78" as="geometry" />
        </mxCell>
        <mxCell id="OkBjMl4km642uhRiBThM-11" value="&lt;span style=&quot;font-size: 14px;&quot;&gt;&lt;b&gt;Stream Processor&lt;/b&gt;&lt;/span&gt;" style="text;html=1;align=center;verticalAlign=middle;resizable=0;points=[];autosize=1;strokeColor=none;fillColor=none;" vertex="1" parent="1">
          <mxGeometry x="220" y="358" width="140" height="30" as="geometry" />
        </mxCell>
        <mxCell id="OkBjMl4km642uhRiBThM-12" value="" style="endArrow=classic;html=1;rounded=0;" edge="1" parent="1">
          <mxGeometry width="50" height="50" relative="1" as="geometry">
            <mxPoint x="340" y="319" as="sourcePoint" />
            <mxPoint x="450" y="319" as="targetPoint" />
            <Array as="points" />
          </mxGeometry>
        </mxCell>
        <mxCell id="OkBjMl4km642uhRiBThM-13" value="&lt;span style=&quot;font-size: 15px;&quot;&gt;&lt;b&gt;Put Record&lt;/b&gt;&lt;/span&gt;" style="text;html=1;align=center;verticalAlign=middle;resizable=0;points=[];autosize=1;strokeColor=none;fillColor=none;strokeWidth=3;" vertex="1" parent="1">
          <mxGeometry x="345" y="290" width="100" height="30" as="geometry" />
        </mxCell>
        <mxCell id="OkBjMl4km642uhRiBThM-14" value="Amazon Kinesis Data Firehose" style="sketch=0;outlineConnect=0;fontColor=#232F3E;gradientColor=none;strokeColor=#ffffff;fillColor=#232F3E;dashed=0;verticalLabelPosition=middle;verticalAlign=bottom;align=center;html=1;whiteSpace=wrap;fontSize=10;fontStyle=1;spacing=3;shape=mxgraph.aws4.productIcon;prIcon=mxgraph.aws4.kinesis_data_firehose;" vertex="1" parent="1">
          <mxGeometry x="460" y="280" width="80" height="120" as="geometry" />
        </mxCell>
        <mxCell id="OkBjMl4km642uhRiBThM-16" value="&lt;span style=&quot;font-size: 14px;&quot;&gt;&lt;b&gt;OrdersAuditFirehose&lt;/b&gt;&lt;/span&gt;" style="text;html=1;align=center;verticalAlign=middle;resizable=0;points=[];autosize=1;strokeColor=none;fillColor=none;" vertex="1" parent="1">
          <mxGeometry x="420" y="400" width="160" height="30" as="geometry" />
        </mxCell>
        <mxCell id="OkBjMl4km642uhRiBThM-17" value="" style="endArrow=classic;html=1;rounded=0;" edge="1" parent="1">
          <mxGeometry width="50" height="50" relative="1" as="geometry">
            <mxPoint x="550" y="318.5" as="sourcePoint" />
            <mxPoint x="660" y="318.5" as="targetPoint" />
            <Array as="points" />
          </mxGeometry>
        </mxCell>
        <mxCell id="OkBjMl4km642uhRiBThM-18" value="&lt;span style=&quot;font-size: 15px;&quot;&gt;&lt;b&gt;BatchPut&lt;/b&gt;&lt;/span&gt;" style="text;html=1;align=center;verticalAlign=middle;resizable=0;points=[];autosize=1;strokeColor=none;fillColor=none;strokeWidth=3;" vertex="1" parent="1">
          <mxGeometry x="560" y="290" width="90" height="30" as="geometry" />
        </mxCell>
      </root>
    </mxGraphModel>
  </diagram>
</mxfile>
